<svg xmlns="http://www.w3.org/2000/svg" version="1.1" xmlns:xlink="http://www.w3.org/1999/xlink" width="1000" height="1000"><metadata><rdf:RDF xmlns:rdf="http://www.w3.org/1999/02/22-rdf-syntax-ns#" xmlns:dc="http://purl.org/dc/elements/1.1/"><rdf:Description><dc:creator>RealFaviconGenerator</dc:creator><dc:source>https://realfavicongenerator.net</dc:source></rdf:Description></rdf:RDF></metadata><g clip-path="url(#SvgjsClipPath1174)"><rect width="1000" height="1000" fill="#0d0d0d"></rect><g transform="matrix(23.333333333333332,0,0,23.333333333333332,150,150)"><svg xmlns="http://www.w3.org/2000/svg" version="1.1" xmlns:xlink="http://www.w3.org/1999/xlink" width="30px" height="30px" viewBox="0 0 30 30"><g id="surface1">
<path style=" stroke:none;fill-rule:nonzero;fill:rgb(74.117649%,74.509805%,74.901962%);fill-opacity:1;" d="M 13.167969 0.378906 C 15.34375 0.371094 15.34375 0.371094 16.261719 0.371094 C 16.894531 0.367188 17.523438 0.367188 18.15625 0.363281 C 18.617188 0.359375 19.078125 0.359375 19.539062 0.359375 C 19.78125 0.359375 20.023438 0.359375 20.265625 0.355469 C 22.101562 0.34375 23.777344 0.480469 25.402344 1.597656 C 25.496094 1.664062 25.496094 1.664062 25.589844 1.726562 C 26.054688 2.066406 26.460938 2.492188 26.832031 2.96875 C 26.832031 3.019531 26.832031 3.070312 26.832031 3.121094 C 26.875 3.121094 26.914062 3.121094 26.957031 3.121094 C 27.980469 4.613281 28.539062 6.460938 28.527344 8.402344 C 28.527344 8.488281 28.527344 8.570312 28.527344 8.65625 C 28.507812 10.332031 28.027344 11.777344 27.074219 12.980469 C 26.839844 13.253906 26.605469 13.492188 26.335938 13.707031 C 26.535156 13.90625 26.734375 14.078125 26.957031 14.238281 C 28.304688 15.285156 29.234375 16.996094 29.601562 18.886719 C 30.035156 21.269531 29.691406 23.820312 28.632812 25.886719 C 28.460938 26.1875 28.277344 26.457031 28.074219 26.726562 C 28.046875 26.761719 28.019531 26.800781 27.992188 26.835938 C 26.859375 28.363281 25.363281 29.144531 23.722656 29.484375 C 23.664062 29.5 23.605469 29.511719 23.542969 29.523438 C 22.597656 29.707031 21.652344 29.707031 20.699219 29.703125 C 20.566406 29.703125 20.433594 29.703125 20.300781 29.703125 C 19.941406 29.703125 19.582031 29.703125 19.222656 29.703125 C 18.84375 29.703125 18.46875 29.703125 18.089844 29.703125 C 17.378906 29.703125 16.664062 29.703125 15.953125 29.699219 C 15.140625 29.699219 14.328125 29.699219 13.515625 29.699219 C 11.847656 29.699219 10.179688 29.695312 8.507812 29.695312 C 8.507812 29.644531 8.507812 29.59375 8.507812 29.542969 C 8.574219 29.503906 8.636719 29.46875 8.703125 29.429688 C 10.503906 28.359375 11.652344 26.699219 12.351562 24.417969 C 12.375 24.351562 12.394531 24.289062 12.414062 24.21875 C 12.433594 24.160156 12.453125 24.105469 12.46875 24.042969 C 12.546875 23.910156 12.546875 23.910156 12.683594 23.863281 C 12.867188 23.832031 13.039062 23.824219 13.226562 23.824219 C 13.300781 23.820312 13.371094 23.820312 13.449219 23.820312 C 13.53125 23.820312 13.609375 23.820312 13.691406 23.820312 C 13.777344 23.820312 13.863281 23.820312 13.949219 23.820312 C 14.136719 23.820312 14.320312 23.820312 14.507812 23.820312 C 14.800781 23.820312 15.09375 23.816406 15.386719 23.816406 C 15.488281 23.816406 15.589844 23.816406 15.6875 23.816406 C 15.765625 23.816406 15.765625 23.816406 15.84375 23.8125 C 16.523438 23.8125 17.207031 23.808594 17.890625 23.808594 C 18.351562 23.808594 18.8125 23.804688 19.273438 23.800781 C 19.519531 23.800781 19.761719 23.800781 20.003906 23.800781 C 20.234375 23.800781 20.464844 23.800781 20.695312 23.796875 C 20.816406 23.796875 20.941406 23.796875 21.0625 23.796875 C 21.957031 23.785156 22.722656 23.546875 23.402344 22.808594 C 23.980469 22 24.15625 21.191406 24.121094 20.128906 C 24.078125 19.3125 23.808594 18.636719 23.355469 18.046875 C 22.488281 17.1875 21.429688 17.105469 20.355469 17.125 C 20.1875 17.125 20.019531 17.128906 19.847656 17.128906 C 19.78125 17.128906 19.78125 17.128906 19.710938 17.128906 C 19.050781 17.132812 18.394531 17.125 17.734375 17.117188 C 17.601562 17.113281 17.464844 17.113281 17.332031 17.109375 C 16.988281 17.105469 16.644531 17.101562 16.300781 17.097656 C 15.882812 17.089844 15.464844 17.085938 15.050781 17.082031 C 14.421875 17.074219 13.792969 17.0625 13.167969 17.054688 C 13.167969 15.246094 13.167969 13.4375 13.167969 11.574219 C 14.003906 11.566406 14.003906 11.566406 14.851562 11.5625 C 15.25 11.558594 15.648438 11.554688 16.046875 11.554688 C 16.5625 11.546875 17.078125 11.542969 17.59375 11.542969 C 18.003906 11.539062 18.410156 11.535156 18.816406 11.53125 C 19.035156 11.53125 19.25 11.527344 19.464844 11.527344 C 19.707031 11.527344 19.949219 11.523438 20.191406 11.523438 C 20.296875 11.523438 20.296875 11.523438 20.40625 11.519531 C 21.261719 11.511719 22.078125 11.371094 22.734375 10.636719 C 23.148438 10.074219 23.25 9.390625 23.242188 8.652344 C 23.195312 7.964844 22.976562 7.429688 22.570312 6.957031 C 21.945312 6.316406 21.226562 6.308594 20.453125 6.304688 C 20.332031 6.304688 20.332031 6.304688 20.210938 6.300781 C 19.996094 6.300781 19.78125 6.296875 19.566406 6.296875 C 19.34375 6.296875 19.117188 6.292969 18.890625 6.289062 C 18.464844 6.289062 18.039062 6.285156 17.613281 6.28125 C 17.039062 6.277344 16.464844 6.269531 15.886719 6.265625 C 14.980469 6.257812 14.074219 6.25 13.167969 6.242188 C 13.167969 4.308594 13.167969 2.375 13.167969 0.378906 Z M 13.167969 0.378906 "></path>
<path style=" stroke:none;fill-rule:nonzero;fill:rgb(74.117649%,74.509805%,74.901962%);fill-opacity:1;" d="M 6.398438 0.378906 C 8.179688 0.378906 9.964844 0.378906 11.800781 0.378906 C 11.84375 0.644531 11.871094 0.832031 11.871094 1.089844 C 11.871094 1.152344 11.871094 1.214844 11.871094 1.28125 C 11.871094 1.347656 11.871094 1.417969 11.871094 1.488281 C 11.871094 1.5625 11.871094 1.636719 11.871094 1.710938 C 11.871094 1.960938 11.871094 2.207031 11.871094 2.453125 C 11.871094 2.632812 11.871094 2.808594 11.871094 2.984375 C 11.871094 3.46875 11.871094 3.949219 11.871094 4.433594 C 11.871094 4.886719 11.871094 5.339844 11.871094 5.796875 C 11.871094 6.753906 11.871094 7.707031 11.871094 8.664062 C 11.871094 9.480469 11.871094 10.300781 11.871094 11.117188 C 11.871094 12.066406 11.871094 13.019531 11.871094 13.96875 C 11.871094 14.472656 11.871094 14.976562 11.871094 15.476562 C 11.871094 15.953125 11.871094 16.425781 11.871094 16.898438 C 11.871094 17.074219 11.871094 17.246094 11.871094 17.417969 C 11.871094 18.273438 11.867188 19.125 11.835938 19.976562 C 11.835938 20.046875 11.832031 20.117188 11.828125 20.1875 C 11.746094 22.367188 11.3125 24.582031 10.125 26.269531 C 10.078125 26.335938 10.03125 26.402344 9.984375 26.472656 C 9.230469 27.53125 8.332031 28.332031 7.265625 28.859375 C 7.167969 28.90625 7.167969 28.90625 7.070312 28.960938 C 5.429688 29.742188 3.601562 29.71875 1.867188 29.703125 C 1.710938 29.703125 1.550781 29.703125 1.394531 29.703125 C 1.011719 29.703125 0.628906 29.699219 0.25 29.695312 C 0.246094 28.941406 0.246094 28.1875 0.246094 27.4375 C 0.246094 27.085938 0.246094 26.738281 0.242188 26.386719 C 0.242188 26.050781 0.242188 25.710938 0.242188 25.375 C 0.242188 25.246094 0.242188 25.117188 0.242188 24.988281 C 0.242188 24.808594 0.242188 24.628906 0.242188 24.449219 C 0.242188 24.394531 0.242188 24.339844 0.242188 24.285156 C 0.242188 23.917969 0.242188 23.917969 0.3125 23.832031 C 0.492188 23.824219 0.675781 23.816406 0.855469 23.816406 C 0.972656 23.8125 1.085938 23.8125 1.199219 23.808594 C 1.382812 23.808594 1.5625 23.804688 1.742188 23.800781 C 3.105469 23.785156 4.324219 23.554688 5.375 22.394531 C 5.609375 22.097656 5.769531 21.785156 5.925781 21.417969 C 5.945312 21.375 5.964844 21.328125 5.984375 21.277344 C 6.414062 20.191406 6.363281 19 6.363281 17.824219 C 6.363281 17.632812 6.363281 17.441406 6.363281 17.253906 C 6.367188 16.84375 6.367188 16.433594 6.367188 16.027344 C 6.367188 15.4375 6.367188 14.84375 6.371094 14.253906 C 6.371094 13.296875 6.375 12.335938 6.375 11.378906 C 6.378906 10.445312 6.378906 9.515625 6.382812 8.585938 C 6.382812 8.527344 6.382812 8.46875 6.382812 8.410156 C 6.382812 8.121094 6.382812 7.835938 6.382812 7.546875 C 6.390625 5.15625 6.394531 2.769531 6.398438 0.378906 Z M 6.398438 0.378906 "></path>
<path style=" stroke:none;fill-rule:nonzero;fill:rgb(69.01961%,69.411767%,69.803923%);fill-opacity:1;" d="M 13.230469 0.457031 C 16.015625 0.457031 18.804688 0.457031 21.675781 0.457031 C 21.65625 0.507812 21.636719 0.558594 21.613281 0.609375 C 18.890625 0.609375 16.164062 0.609375 13.355469 0.609375 C 13.355469 2.417969 13.355469 4.226562 13.355469 6.089844 C 14.222656 6.089844 14.222656 6.089844 15.113281 6.085938 C 15.476562 6.085938 15.84375 6.085938 16.210938 6.082031 C 16.792969 6.082031 17.378906 6.082031 17.960938 6.078125 C 18.382812 6.078125 18.808594 6.078125 19.234375 6.078125 C 19.457031 6.078125 19.683594 6.078125 19.90625 6.074219 C 20.15625 6.074219 20.410156 6.074219 20.660156 6.074219 C 20.734375 6.074219 20.808594 6.074219 20.886719 6.074219 C 20.988281 6.074219 20.988281 6.074219 21.09375 6.074219 C 21.152344 6.074219 21.210938 6.074219 21.273438 6.074219 C 21.429688 6.089844 21.429688 6.089844 21.675781 6.242188 C 18.890625 6.21875 16.101562 6.195312 13.230469 6.167969 C 13.230469 4.28125 13.230469 2.398438 13.230469 0.457031 Z M 13.230469 0.457031 "></path>
<path style=" stroke:none;fill-rule:nonzero;fill:rgb(71.372551%,71.764708%,72.156864%);fill-opacity:1;" d="M 26.832031 3.199219 C 27.472656 3.515625 27.796875 4.6875 28.074219 5.40625 C 28.09375 5.457031 28.117188 5.507812 28.136719 5.558594 C 28.140625 5.710938 28.140625 5.863281 28.136719 6.015625 C 27.984375 5.828125 27.949219 5.671875 27.878906 5.421875 C 27.640625 4.632812 27.285156 3.972656 26.832031 3.351562 C 26.832031 3.300781 26.832031 3.25 26.832031 3.199219 Z M 26.832031 3.199219 "></path>
<path style=" stroke:none;fill-rule:nonzero;fill:rgb(71.372551%,71.764708%,72.156864%);fill-opacity:1;" d="M 6.335938 29.085938 C 5.785156 29.695312 4.734375 29.570312 4.039062 29.542969 C 4.058594 29.492188 4.078125 29.441406 4.097656 29.390625 C 4.210938 29.363281 4.210938 29.363281 4.355469 29.347656 C 4.40625 29.34375 4.460938 29.335938 4.515625 29.332031 C 4.570312 29.324219 4.628906 29.320312 4.6875 29.316406 C 5.078125 29.273438 5.457031 29.222656 5.84375 29.113281 C 6.007812 29.074219 6.167969 29.074219 6.335938 29.085938 Z M 6.335938 29.085938 "></path>
<path style=" stroke:none;fill-rule:nonzero;fill:rgb(68.627453%,68.627453%,69.411767%);fill-opacity:1;" d="M 11.738281 16.597656 C 11.757812 16.597656 11.78125 16.597656 11.800781 16.597656 C 11.8125 16.9375 11.820312 17.273438 11.832031 17.609375 C 11.835938 17.726562 11.839844 17.839844 11.839844 17.953125 C 11.847656 18.121094 11.851562 18.285156 11.855469 18.449219 C 11.859375 18.597656 11.859375 18.597656 11.863281 18.75 C 11.863281 19.035156 11.839844 19.289062 11.800781 19.570312 C 11.761719 19.570312 11.71875 19.570312 11.675781 19.570312 C 11.675781 19.21875 11.675781 18.871094 11.671875 18.519531 C 11.671875 18.402344 11.671875 18.28125 11.671875 18.164062 C 11.671875 17.992188 11.671875 17.820312 11.671875 17.648438 C 11.671875 17.597656 11.671875 17.542969 11.671875 17.492188 C 11.671875 17.183594 11.691406 16.898438 11.738281 16.597656 Z M 11.738281 16.597656 "></path>
<path style=" stroke:none;fill-rule:nonzero;fill:rgb(71.372551%,70.980394%,71.764708%);fill-opacity:1;" d="M 28.386719 7.460938 C 28.425781 7.460938 28.46875 7.460938 28.507812 7.460938 C 28.511719 7.769531 28.515625 8.074219 28.515625 8.378906 C 28.519531 8.464844 28.519531 8.554688 28.519531 8.640625 C 28.523438 9.089844 28.519531 9.480469 28.386719 9.898438 C 28.34375 9.949219 28.304688 10 28.261719 10.050781 C 28.300781 9.195312 28.34375 8.34375 28.386719 7.460938 Z M 28.386719 7.460938 "></path>
<path style=" stroke:none;fill-rule:nonzero;fill:rgb(70.980394%,70.980394%,71.372551%);fill-opacity:1;" d="M 11.675781 19.875 C 11.699219 19.875 11.71875 19.875 11.738281 19.875 C 11.765625 21.699219 11.765625 21.699219 11.613281 22.386719 C 11.574219 22.386719 11.53125 22.386719 11.492188 22.386719 C 11.515625 21.539062 11.550781 20.707031 11.675781 19.875 Z M 11.675781 19.875 "></path>
<path style=" stroke:none;fill-rule:nonzero;fill:rgb(71.764708%,71.764708%,72.156864%);fill-opacity:1;" d="M 9.066406 27.410156 C 8.980469 27.730469 8.792969 27.839844 8.570312 28.015625 C 8.53125 28.050781 8.488281 28.082031 8.445312 28.117188 C 8.144531 28.355469 7.847656 28.546875 7.515625 28.707031 C 7.472656 28.65625 7.433594 28.605469 7.390625 28.554688 C 7.460938 28.507812 7.53125 28.464844 7.605469 28.417969 C 7.964844 28.191406 8.714844 27.410156 9.066406 27.410156 Z M 9.066406 27.410156 "></path>
<path style=" stroke:none;fill-rule:nonzero;fill:rgb(71.764708%,71.764708%,72.549021%);fill-opacity:1;" d="M 11.429688 22.460938 C 11.449219 22.460938 11.46875 22.460938 11.492188 22.460938 C 11.507812 22.871094 11.453125 23.199219 11.34375 23.582031 C 11.328125 23.628906 11.316406 23.679688 11.300781 23.730469 C 11.230469 23.976562 11.15625 24.210938 11.054688 24.441406 C 11.015625 24.441406 10.972656 24.441406 10.933594 24.441406 C 11.035156 23.753906 11.234375 23.113281 11.429688 22.460938 Z M 11.429688 22.460938 "></path>
<path style=" stroke:none;fill-rule:nonzero;fill:rgb(70.980394%,71.372551%,71.764708%);fill-opacity:1;" d="M 4.160156 23.527344 C 4.027344 23.691406 3.953125 23.726562 3.777344 23.800781 C 3.730469 23.816406 3.6875 23.835938 3.636719 23.855469 C 3.265625 23.976562 2.902344 23.996094 2.519531 23.988281 C 2.472656 23.988281 2.429688 23.988281 2.382812 23.988281 C 2.269531 23.988281 2.160156 23.984375 2.050781 23.984375 C 2.050781 23.960938 2.050781 23.933594 2.050781 23.910156 C 2.085938 23.90625 2.125 23.90625 2.160156 23.902344 C 2.59375 23.867188 2.996094 23.765625 3.414062 23.632812 C 3.671875 23.554688 3.894531 23.511719 4.160156 23.527344 Z M 4.160156 23.527344 "></path>
<path style=" stroke:none;fill-rule:nonzero;fill:rgb(77.254903%,77.64706%,78.039217%);fill-opacity:1;" d="M 0.3125 23.832031 C 1.109375 23.832031 1.910156 23.832031 2.734375 23.832031 C 2.734375 23.859375 2.734375 23.882812 2.734375 23.910156 C 2.589844 23.933594 2.445312 23.957031 2.296875 23.984375 C 2.296875 24.011719 2.296875 24.035156 2.296875 24.0625 C 2.074219 24.0625 1.847656 24.0625 1.613281 24.0625 C 1.613281 24.011719 1.613281 23.960938 1.613281 23.910156 C 1.183594 23.910156 0.753906 23.910156 0.3125 23.910156 C 0.3125 23.882812 0.3125 23.859375 0.3125 23.832031 Z M 0.3125 23.832031 "></path>
<path style=" stroke:none;fill-rule:nonzero;fill:rgb(71.764708%,72.156864%,72.941178%);fill-opacity:1;" d="M 12.421875 24.519531 C 12.484375 24.746094 12.484375 24.746094 12.386719 25.023438 C 12.34375 25.128906 12.296875 25.238281 12.25 25.347656 C 12.230469 25.398438 12.207031 25.453125 12.183594 25.507812 C 12.0625 25.792969 11.9375 26.074219 11.800781 26.34375 C 11.753906 26.175781 11.730469 26.074219 11.773438 25.898438 C 11.792969 25.851562 11.816406 25.804688 11.835938 25.753906 C 11.855469 25.703125 11.878906 25.648438 11.902344 25.59375 C 11.9375 25.515625 11.9375 25.515625 11.972656 25.429688 C 12.003906 25.351562 12.003906 25.351562 12.039062 25.265625 C 12.152344 25 12.265625 24.75 12.421875 24.519531 Z M 12.421875 24.519531 "></path>
<path style=" stroke:none;fill-rule:nonzero;fill:rgb(71.764708%,71.764708%,72.549021%);fill-opacity:1;" d="M 10.808594 27.640625 C 10.867188 27.664062 10.929688 27.691406 10.992188 27.714844 C 10.640625 28.164062 10.292969 28.582031 9.875 28.933594 C 9.835938 28.910156 9.792969 28.882812 9.75 28.859375 C 9.980469 28.574219 10.214844 28.300781 10.453125 28.035156 C 10.488281 27.996094 10.523438 27.957031 10.558594 27.917969 C 10.640625 27.824219 10.722656 27.734375 10.808594 27.640625 Z M 10.808594 27.640625 "></path>
<path style=" stroke:none;fill-rule:nonzero;fill:rgb(70.980394%,71.372551%,71.764708%);fill-opacity:1;" d="M 27.265625 27.488281 C 27.171875 27.824219 26.957031 27.96875 26.722656 28.148438 C 26.6875 28.179688 26.648438 28.210938 26.609375 28.242188 C 26.375 28.425781 26.183594 28.523438 25.902344 28.554688 C 26.050781 28.34375 26.214844 28.234375 26.417969 28.105469 C 26.648438 27.957031 27.027344 27.488281 27.265625 27.488281 Z M 27.265625 27.488281 "></path>
<path style=" stroke:none;fill-rule:nonzero;fill:rgb(72.156864%,72.156864%,72.549021%);fill-opacity:1;" d="M 22.226562 0.40625 C 22.292969 0.410156 22.355469 0.417969 22.421875 0.421875 C 22.605469 0.457031 22.75 0.515625 22.917969 0.609375 C 22.917969 0.632812 22.917969 0.660156 22.917969 0.683594 C 22.480469 0.695312 22.050781 0.667969 21.613281 0.609375 C 21.738281 0.300781 21.984375 0.378906 22.226562 0.40625 Z M 22.226562 0.40625 "></path>
<path style=" stroke:none;fill-rule:nonzero;fill:rgb(71.764708%,71.764708%,72.156864%);fill-opacity:1;" d="M 25.777344 28.628906 C 25.777344 28.679688 25.777344 28.730469 25.777344 28.78125 C 25.640625 28.847656 25.503906 28.910156 25.367188 28.972656 C 25.253906 29.023438 25.253906 29.023438 25.140625 29.078125 C 24.902344 29.164062 24.714844 29.179688 24.472656 29.164062 C 24.679688 28.992188 24.890625 28.90625 25.125 28.808594 C 25.167969 28.792969 25.207031 28.773438 25.25 28.757812 C 25.433594 28.683594 25.582031 28.628906 25.777344 28.628906 Z M 25.777344 28.628906 "></path>
<path style=" stroke:none;fill-rule:nonzero;fill:rgb(70.588237%,70.588237%,71.372551%);fill-opacity:1;" d="M 28.507812 16.292969 C 28.753906 16.386719 28.839844 16.582031 28.960938 16.851562 C 28.980469 16.902344 29.003906 16.953125 29.027344 17.007812 C 29.046875 17.058594 29.070312 17.109375 29.09375 17.164062 C 29.261719 17.546875 29.261719 17.546875 29.230469 17.757812 C 29.210938 17.824219 29.210938 17.824219 29.191406 17.894531 C 29.160156 17.816406 29.125 17.734375 29.089844 17.652344 C 29.046875 17.550781 29 17.445312 28.957031 17.339844 C 28.933594 17.289062 28.910156 17.238281 28.886719 17.183594 C 28.773438 16.921875 28.65625 16.683594 28.507812 16.445312 C 28.507812 16.394531 28.507812 16.347656 28.507812 16.292969 Z M 28.507812 16.292969 "></path>
<path style=" stroke:none;fill-rule:nonzero;fill:rgb(70.980394%,70.980394%,71.764708%);fill-opacity:1;" d="M 29.191406 24.0625 C 29.238281 24.179688 29.238281 24.179688 29.253906 24.367188 C 29.1875 24.558594 29.121094 24.734375 29.042969 24.917969 C 29.019531 24.96875 29 25.015625 28.976562 25.066406 C 28.925781 25.1875 28.871094 25.308594 28.820312 25.429688 C 28.777344 25.429688 28.738281 25.429688 28.695312 25.429688 C 28.789062 25.144531 28.882812 24.859375 28.980469 24.574219 C 29.007812 24.496094 29.03125 24.414062 29.0625 24.332031 C 29.128906 24.136719 29.128906 24.136719 29.191406 24.0625 Z M 29.191406 24.0625 "></path>
<path style=" stroke:none;fill-rule:nonzero;fill:rgb(70.980394%,70.588237%,70.980394%);fill-opacity:1;" d="M 27.144531 12.5625 C 27.164062 12.640625 27.183594 12.714844 27.203125 12.792969 C 26.6875 13.441406 26.6875 13.441406 26.523438 13.554688 C 26.390625 13.519531 26.390625 13.519531 26.273438 13.476562 C 26.308594 13.441406 26.347656 13.410156 26.382812 13.375 C 26.65625 13.121094 26.910156 12.867188 27.144531 12.5625 Z M 27.144531 12.5625 "></path>
<path style=" stroke:none;fill-rule:nonzero;fill:rgb(70.19608%,70.19608%,70.588237%);fill-opacity:1;" d="M 21.429688 29.46875 C 21.757812 29.46875 22.085938 29.46875 22.421875 29.46875 C 22.421875 29.515625 22.421875 29.566406 22.421875 29.621094 C 22.074219 29.699219 21.777344 29.683594 21.429688 29.621094 C 21.429688 29.570312 21.429688 29.519531 21.429688 29.46875 Z M 21.429688 29.46875 "></path>
<path style=" stroke:none;fill-rule:nonzero;fill:rgb(69.411767%,69.803923%,69.803923%);fill-opacity:1;" d="M 24.222656 19.949219 C 24.242188 19.949219 24.265625 19.949219 24.285156 19.949219 C 24.289062 20.171875 24.289062 20.394531 24.289062 20.617188 C 24.289062 20.679688 24.289062 20.742188 24.292969 20.804688 C 24.292969 20.867188 24.292969 20.925781 24.292969 20.992188 C 24.292969 21.046875 24.292969 21.101562 24.292969 21.160156 C 24.285156 21.324219 24.261719 21.46875 24.222656 21.625 C 24.183594 21.625 24.140625 21.625 24.097656 21.625 C 24.109375 21.53125 24.117188 21.4375 24.125 21.34375 C 24.167969 20.878906 24.195312 20.414062 24.222656 19.949219 Z M 24.222656 19.949219 "></path>
<path style=" stroke:none;fill-rule:nonzero;fill:rgb(71.764708%,72.156864%,72.549021%);fill-opacity:1;" d="M 21.863281 6.320312 C 22.15625 6.363281 22.429688 6.5 22.671875 6.699219 C 22.691406 6.777344 22.710938 6.851562 22.734375 6.929688 C 22.523438 6.875 22.347656 6.777344 22.160156 6.65625 C 22.101562 6.621094 22.046875 6.589844 21.992188 6.550781 C 21.949219 6.527344 21.90625 6.5 21.863281 6.472656 C 21.863281 6.421875 21.863281 6.371094 21.863281 6.320312 Z M 21.863281 6.320312 "></path>
<path style=" stroke:none;fill-rule:nonzero;fill:rgb(76.862746%,76.862746%,77.254903%);fill-opacity:1;" d="M 22.175781 17.054688 C 22.234375 17.132812 22.296875 17.207031 22.359375 17.285156 C 21.972656 17.234375 21.582031 17.183594 21.179688 17.132812 C 21.179688 17.105469 21.179688 17.082031 21.179688 17.054688 C 21.53125 16.988281 21.824219 16.96875 22.175781 17.054688 Z M 22.175781 17.054688 "></path>
<path style=" stroke:none;fill-rule:nonzero;fill:rgb(70.980394%,70.588237%,70.980394%);fill-opacity:1;" d="M 10.621094 25.050781 C 10.640625 25.152344 10.664062 25.25 10.683594 25.355469 C 10.59375 25.535156 10.59375 25.535156 10.46875 25.71875 C 10.410156 25.808594 10.410156 25.808594 10.347656 25.902344 C 10.3125 25.949219 10.28125 25.992188 10.25 26.039062 C 10.207031 26.015625 10.167969 25.992188 10.125 25.964844 C 10.289062 25.664062 10.453125 25.363281 10.621094 25.050781 Z M 10.621094 25.050781 "></path>
<path style=" stroke:none;fill-rule:nonzero;fill:rgb(71.764708%,72.156864%,72.941178%);fill-opacity:1;" d="M 22.421875 17.207031 C 23.019531 17.414062 23.019531 17.414062 23.230469 17.742188 C 22.960938 17.691406 22.726562 17.585938 22.484375 17.4375 C 22.464844 17.359375 22.445312 17.285156 22.421875 17.207031 Z M 22.421875 17.207031 "></path>
<path style=" stroke:none;fill-rule:nonzero;fill:rgb(71.764708%,71.764708%,72.156864%);fill-opacity:1;" d="M 23.230469 7.84375 C 23.355469 7.917969 23.355469 7.917969 23.394531 8.054688 C 23.417969 8.234375 23.421875 8.402344 23.421875 8.585938 C 23.417969 8.644531 23.417969 8.707031 23.417969 8.769531 C 23.417969 8.839844 23.417969 8.839844 23.417969 8.910156 C 23.394531 8.910156 23.375 8.910156 23.355469 8.910156 C 23.230469 8.535156 23.21875 8.238281 23.230469 7.84375 Z M 23.230469 7.84375 "></path>
<path style=" stroke:none;fill-rule:nonzero;fill:rgb(71.372551%,72.156864%,72.549021%);fill-opacity:1;" d="M 24.285156 29.238281 C 24.160156 29.390625 24.160156 29.390625 24.011719 29.40625 C 23.957031 29.402344 23.902344 29.402344 23.84375 29.398438 C 23.757812 29.398438 23.757812 29.398438 23.671875 29.394531 C 23.628906 29.394531 23.585938 29.394531 23.539062 29.390625 C 23.75 29.136719 24.011719 29.121094 24.285156 29.238281 Z M 24.285156 29.238281 "></path>
<path style=" stroke:none;fill-rule:nonzero;fill:rgb(71.372551%,71.372551%,71.764708%);fill-opacity:1;" d="M 7.265625 28.707031 C 7.265625 28.753906 7.265625 28.804688 7.265625 28.859375 C 7.027344 28.996094 6.847656 29.023438 6.582031 29.011719 C 6.644531 28.859375 6.644531 28.859375 6.820312 28.773438 C 7.019531 28.707031 7.019531 28.707031 7.265625 28.707031 Z M 7.265625 28.707031 "></path>
<path style=" stroke:none;fill-rule:nonzero;fill:rgb(71.764708%,72.156864%,72.941178%);fill-opacity:1;" d="M 24.039062 21.777344 C 24.097656 22.003906 24.097656 22.003906 24.050781 22.144531 C 23.984375 22.273438 23.917969 22.40625 23.851562 22.539062 C 23.808594 22.511719 23.769531 22.488281 23.726562 22.460938 C 23.746094 22.402344 23.765625 22.347656 23.785156 22.285156 C 23.832031 22.144531 23.875 22 23.914062 21.851562 C 23.953125 21.828125 23.996094 21.800781 24.039062 21.777344 Z M 24.039062 21.777344 "></path>
<path style=" stroke:none;fill-rule:nonzero;fill:rgb(71.372551%,71.764708%,71.764708%);fill-opacity:1;" d="M 28.074219 10.507812 C 28.117188 10.507812 28.15625 10.507812 28.199219 10.507812 C 28.171875 10.855469 28.144531 11.085938 27.949219 11.34375 C 27.949219 11.035156 28 10.804688 28.074219 10.507812 Z M 28.074219 10.507812 "></path>
<path style=" stroke:none;fill-rule:nonzero;fill:rgb(70.588237%,70.588237%,71.372551%);fill-opacity:1;" d="M 28.324219 26.039062 C 28.34375 26.117188 28.363281 26.191406 28.386719 26.269531 C 28.3125 26.40625 28.3125 26.40625 28.210938 26.550781 C 28.175781 26.597656 28.144531 26.644531 28.109375 26.695312 C 28.011719 26.800781 28.011719 26.800781 27.886719 26.800781 C 27.992188 26.5 28.152344 26.285156 28.324219 26.039062 Z M 28.324219 26.039062 "></path>
<path style=" stroke:none;fill-rule:nonzero;fill:rgb(71.764708%,71.764708%,72.156864%);fill-opacity:1;" d="M 23.539062 22.691406 C 23.582031 22.714844 23.621094 22.742188 23.664062 22.765625 C 23.488281 22.992188 23.34375 23.179688 23.105469 23.300781 C 23.199219 23.011719 23.339844 22.871094 23.539062 22.691406 Z M 23.539062 22.691406 "></path>
<path style=" stroke:none;fill-rule:nonzero;fill:rgb(71.372551%,71.372551%,72.156864%);fill-opacity:1;" d="M 24.96875 1.445312 C 25.214844 1.488281 25.386719 1.574219 25.589844 1.75 C 25.589844 1.800781 25.589844 1.851562 25.589844 1.902344 C 25.367188 1.800781 25.167969 1.683594 24.96875 1.523438 C 24.96875 1.496094 24.96875 1.472656 24.96875 1.445312 Z M 24.96875 1.445312 "></path>
<path style=" stroke:none;fill-rule:nonzero;fill:rgb(70.19608%,70.19608%,70.980394%);fill-opacity:1;" d="M 27.824219 11.421875 C 27.886719 11.648438 27.886719 11.648438 27.839844 11.789062 C 27.773438 11.921875 27.707031 12.050781 27.640625 12.183594 C 27.597656 12.183594 27.558594 12.183594 27.515625 12.183594 C 27.585938 11.886719 27.660156 11.660156 27.824219 11.421875 Z M 27.824219 11.421875 "></path>
<path style=" stroke:none;fill-rule:nonzero;fill:rgb(70.588237%,70.588237%,71.372551%);fill-opacity:1;" d="M 5.03125 22.765625 C 5.09375 22.792969 5.152344 22.816406 5.21875 22.84375 C 5.074219 22.96875 4.929688 23.09375 4.78125 23.222656 C 4.761719 23.148438 4.742188 23.074219 4.71875 22.996094 C 4.863281 22.875 4.863281 22.875 5.03125 22.765625 Z M 5.03125 22.765625 "></path>
<path style=" stroke:none;fill-rule:nonzero;fill:rgb(100%,100%,100%);fill-opacity:1;" d="M 6.273438 14.390625 C 6.335938 14.695312 6.335938 14.695312 6.335938 14.695312 Z M 6.273438 14.390625 "></path>
<path style=" stroke:none;fill-rule:nonzero;fill:rgb(100%,100%,100%);fill-opacity:1;" d="M 19.628906 29.773438 C 19.75 29.847656 19.75 29.847656 19.75 29.847656 Z M 19.628906 29.773438 "></path>
</g></svg></g></g><defs><clipPath id="SvgjsClipPath1174"><rect width="1000" height="1000" x="0" y="0" rx="250" ry="250"></rect></clipPath></defs></svg>